<svg xmlns="http://www.w3.org/2000/svg" width="128.692" height="136.057" viewBox="0 0 128.692 136.057"><g fill="#6e6e6e" opacity="0.4"><path d="M128.131 41.246c-9.777.842-18.959 5.1-27.982 8.723-3.99 1.6-9.173 3.666-12.521 7.019a76.68 76.68 0 0 0 2.886-12.475c7.184-6.138 16.305-8.54 21.851-16.82 1.365-2.041 4.7-10.485 1.752-12.205-2.479-1.445-8.841 6.117-10.6 7.389-6 4.335-11.057 11.265-11.456 18.838-.3.413-.616.819-.906 1.242-.164.129-.316.271-.478.4a57.506 57.506 0 0 0-2.194-25.3c-.083-.249-.47-.145-.394.109a54.628 54.628 0 0 1 2.143 11.312 18.338 18.338 0 0 0-3.495-4.611c-5.329-5.682-5.084-13.481-3.576-20.605.464-2.2-.17-2.756.813-.58a25.589 25.589 0 0 0 3.886 5.276c5.23 6.311 5.983 13.842 3.392 21.542-.123.365.428.582.613.257 2.722-4.85 2.232-10.2 1.128-15.473C91.776 9.468 85.59 6.2 84.085.436a.612.612 0 0 0-1.172 0c-1.6 5.5-2.451 10.881-1.52 16.575 1.072 6.547 7.28 9.416 8.98 15.442.006.022.028.028.038.047a61.229 61.229 0 0 1-.385 8.818c-1.165-12.588-14.734-16.373-22.75-23.842a.545.545 0 0 0-.9.238c-4.328 14.307 23.71 14.78 22.967 26.771-.034.029-.068.055-.1.084a.351.351 0 0 0 .015.547c-.024.179-.032.348-.069.53a.315.315 0 0 0 .136.339 78.712 78.712 0 0 1-4.069 14.109C83.4 54.377 82.639 50.145 78 45.991a96.983 96.983 0 0 0-21.219-14.6.517.517 0 0 0-.7.7c3.307 5.5 7.773 9.649 12.689 13.717 5.4 4.472 12.919 8.793 15.736 15.459a.3.3 0 0 0 .2.179 104.291 104.291 0 0 1-7.773 15.224c0-.1.012-.2.012-.3a13.133 13.133 0 0 0-1.828-10.743c-3.3-5.013-11.157-5.7-12.464-12.245-.1-.506-.957-.391-.9.126A28.82 28.82 0 0 0 65.5 65.776c3.009 5.09 7.711 8.2 9.532 13.89-2.18 3.315-4.5 6.5-6.91 9.512-.705.883-1.437 1.727-2.166 2.574 4.121-11.263-6.082-20.47-10.974-29.894a.561.561 0 0 0-1.038.283c.047 6.169.46 12.086 2.435 17.965 1.682 5.01 6.4 8.182 8.153 13.255a102.907 102.907 0 0 1-11.89 11.111c1.392-8.2.879-18.782-4.835-25.2a.575.575 0 0 0-.954.253c-1.331 8.9-1.024 18.6 4.064 26.294a168.14 168.14 0 0 1-9.7 6.969q-2.511 1.679-5.045 3.263l.1-.7c5.811-5.715 3.433-17.223 3.353-24.37a.514.514 0 0 0-.951-.257c-5.136 6.871-8.706 16.762-4.142 24.58-.077.079-.142.165-.221.244a.51.51 0 0 0-.128.511.269.269 0 0 0-.043.337c.139.212.284.423.429.635a158.274 158.274 0 0 1-16.783 9.016c-.021-.09-.035-.181-.056-.271 4.514-6.168 8.826-15.352 7.652-23.027-.066-.43-.611-.449-.875-.231-6.178 5.091-10.047 14.827-7.736 22.753-.1.185-.205.365-.3.553a.468.468 0 0 0 .3.7A129.24 129.24 0 0 1 .2 132.671a.277.277 0 0 0 .151.534 76.708 76.708 0 0 0 18.243-6 .345.345 0 0 0 .278.445c.265.061.543.113.821.168 3.978 5.559 13.582 9.088 19.974 8.058.464-.074.546-.624.394-.973-2.853-6.53-13.624-8.7-20.3-8.128-.022-.026-.049-.051-.071-.075a160.972 160.972 0 0 0 15.605-8.652c6.4 8.63 17.438 15.121 27.961 10.249a.615.615 0 0 0 .122-.963c-6.33-5.8-17.981-10.882-26.684-9.656a.281.281 0 0 0-.216.14l-.35-.289a423.894 423.894 0 0 0 5.737-3.642c3.435-2.215 6.7-4.529 9.848-6.953a.338.338 0 0 0 .441-.026c8.327 7.163 17.758 13.514 29.194 12.561a.652.652 0 0 0 .326-1.2C73.218 112.848 63.511 106.1 53.1 105.9a.427.427 0 0 0-.071.011 109.177 109.177 0 0 0 12.386-11.433c.156-.012.311-.022.469-.032a8.418 8.418 0 0 0 1.462.807 29.179 29.179 0 0 0 15.211 8.354c6.943 1.369 14.511 3.206 21.5 1.217a.623.623 0 0 0 .27-1.031c-9.44-9.943-23.994-11.609-37.078-10.228-.168-.191-.338-.379-.5-.575 1.574-1.77 3.118-3.585 4.6-5.506a110.78 110.78 0 0 0 3.538-4.869c3.011.492 5.7 2.054 8.765 2.255a71.043 71.043 0 0 0 12.048-.426 25.016 25.016 0 0 0 9.634-3.166c3.333-1.856 5.029-6 8.031-8.289a.653.653 0 0 0-.5-1.186C105.3 73.43 97.661 74.6 90.01 75.723c-5.041.743-9.825 1.878-13.806 4.929a101.263 101.263 0 0 0 9.153-17.386c4.918-2.983 10.621-3.884 16.144-5.171a96.378 96.378 0 0 0 12.2-4.038c6.027-2.294 12.837-5.545 14.968-12.1a.561.561 0 0 0-.54-.706m-25-16.2c3.175-2.75 6.528-6.037 10.055-8.281 1.022-.652-.191 5.963-.366 6.572-1.048 3.648-3.352 6.415-6.1 8.954-4.1 3.8-9.155 6.149-13.686 9.284l.2-.624c3.882-4.4 8.839-7.9 11.9-12.951a.237.237 0 0 0-.372-.284c-3.687 3.942-7.667 7.711-11.087 11.9 1.988-5.744 4.591-10.367 9.453-14.574m-78.754 78.94c-.287.28-.213 5.092-.382 5.853a34.437 34.437 0 0 1-2.212 6.183 48.585 48.585 0 0 1-2.491 4.767c.2-2.2.209-4.467.212-6.6a.251.251 0 0 0-.5 0c-.057 2.7-.873 5.564-.682 8.282-.306.528-.6 1.061-.9 1.595a23.743 23.743 0 0 1 6.956-20.08m14.08 30.713c-5.173.474-11.472-1.951-15.915-5.365 2.052.926 4.454 1.214 6.433 2.259a.224.224 0 0 0 .225-.387 28.971 28.971 0 0 0-6.967-2.981c5.949.783 13.173 1.076 16.224 6.473m-4.175-33.17a29.122 29.122 0 0 1 2.892-6.744c.605-1.105 1.4-3.974 1.482-1.787.224 6.352 1.14 13.737-2 19.416a23.96 23.96 0 0 0-.226-8.726c-.077-.292-.579-.238-.537.074.446 3.457-.237 6.866-.3 10.286-.163.215-.332.43-.511.641-1.939-4.213-1.994-8.463-.8-13.159m.7 14.9h.007c.066-.045.115-.1.18-.148.064.092.125.185.19.277-.057.036-.117.071-.176.107l-.2-.232M61.6 127.368c.205.165-5.9 1.557-6.789 1.551-3.215-.023-6.369-1.5-9.122-2.983A29.664 29.664 0 0 1 39.1 120.9c3.218 1.783 7.255 2.685 10.065 4.707.22.158.419-.2.209-.361-3.809-2.869-8.3-4.088-12.124-6.81 8.715 1.149 17.325 3.314 24.346 8.937M47.316 86.7c.012-1.052 0-6.71 1.7-3.841 3.63 6.156 3.627 15.257 2.335 22.093A36.643 36.643 0 0 1 47.464 92a42.838 42.838 0 0 1-.147-5.3m6.174 20.246c9.588.772 17.861 6.23 25.795 11.33-10.243.128-17.69-5.731-25.795-11.33m-.875-.6-.081-.056c.034-.029.069-.055.1-.083a.551.551 0 0 0-.023.139m2.46-42.222c.051 1.913 5.04 7.9 6.833 10.72 3.52 5.525 4.7 10.772 2.954 16.948-.133-.419-.28-.829-.449-1.225a.2.2 0 0 0 .187-.23c-.4-4.626-3.168-8.785-5.1-12.893-.12-.261-.576-.069-.467.2 1.568 3.8 3.181 7.507 4.572 11.358a51.929 51.929 0 0 0-3.818-5.228c-4.227-5.483-4.539-13-4.714-19.646m46.118 38.3c3.574 2.924-3.253 2.02-4.98 1.981a75.073 75.073 0 0 1-11.844-1.628 30.8 30.8 0 0 1-14.707-6.811c4.771.981 10.557-.158 14.465 3.39.2.18.491-.108.3-.3-2.3-2.232-4.927-2.983-8.061-3.438a71.261 71.261 0 0 1-7.518-1.346c11.35-.475 23.311.755 32.349 8.147M89.968 41.86l-.026-.089c.011-.007.027-.009.036-.017 0 .035-.006.071-.011.106m-16.45-13.03c-2.477-1.669-4.955-3.7-6.135-6.526-.266-.636-1.013-4.2.254-3.043a44.166 44.166 0 0 0 4.66 3.567c3.17 2.2 6.561 4.02 9.621 6.382 3.607 2.783 5.309 6.31 6.85 10.283C85.353 34.714 77 31.172 73.517 28.83m2.653 21.665c-5.621-4.385-11.37-8.914-16.038-14.324-5.368-6.214 1.255-1.2 3.175-.03a97.428 97.428 0 0 1 10.949 8.02c3.08 2.514 6.244 4.967 7.8 8.748a34.125 34.125 0 0 1 1.365 4.477c-1.826-2.746-4.633-4.849-7.251-6.89m8.813 10.251.017-.009-.012.03-.006-.022m-22.72-5.008a6.757 6.757 0 0 1-.292-.982 5.023 5.023 0 0 0 .292.982m3.409 8.122a23.432 23.432 0 0 1-1.728-4.06c-.357-1-1.2-2.741-1.668-4.025.947 2.26 3.468 3.9 5.337 5.186 4.763 3.277 9.184 7.2 8.824 12.728-.839-2.277-2.55-4.3-3.912-6.341a.219.219 0 0 0-.378.22c.806 1.492 1.693 2.927 2.531 4.4a11.652 11.652 0 0 1 1.306 4.14 13.666 13.666 0 0 1-.656 1.755 16.85 16.85 0 0 0-3.668-6.227 55.307 55.307 0 0 1-5.987-7.773m26.771 12.78c6.171-.879 12.321-1.856 18.425-3.11-1.334 1.385-2.431 2.918-3.686 4.475-3.534 4.388-9.838 5.153-15.023 5.57a46 46 0 0 1-9.833-.085 16.224 16.224 0 0 1-3.372-.941c4.063.269 8.192.117 11.94-1.566.25-.112.064-.475-.18-.423a52.533 52.533 0 0 1-13.534 1.388c-.345-.1-.694-.19-1.049-.261 5.013-3.29 10.322-4.19 16.312-5.047m31.921-29.98C114.33 56.819 97.6 55.349 85.811 62.11c.162-.416.323-.831.48-1.251a21.548 21.548 0 0 1 1.409-1.647c3.852-2.646 10.059-3.682 13.474-4.976a.21.21 0 0 0-.113-.4 45.918 45.918 0 0 0-11.28 3.432c4.172-3.457 9.371-5.456 14.567-7.486 4.164-1.628 8.315-3.292 12.522-4.8 3.012-1.078 13.408-4.307 7.49 1.681"></path><path d="M77.189 28.234c-.378-.241-.712.35-.345.593a445.253 445.253 0 0 1 8.074 5.554c.2.141.5-.147.349-.35-1.986-2.618-5.372-4.061-8.078-5.8M51.495 103.435a71.24 71.24 0 0 0-1.759-8.969c-.064-.294-.5-.168-.447.124a71 71 0 0 0 1.842 8.895c.064.191.385.169.365-.05"></path></g></svg>